<svg width="64" height="64" viewBox="0 0 64 64" fill="none" xmlns="http://www.w3.org/2000/svg">
<path d="M32 59C46.9117 59 59 46.9117 59 32C59 17.0883 46.9117 5 32 5C17.0883 5 5 17.0883 5 32C5 46.9117 17.0883 59 32 59Z" fill="url(#paint0_linear_1_2)"/>
<path d="M42.8284 25.1716C44.3905 26.7337 44.3905 29.2663 42.8284 30.8284L30.8284 42.8284C29.2663 44.3905 26.7337 44.3905 25.1716 42.8284L21.1716 38.8284C19.6095 37.2663 19.6095 34.7337 21.1716 33.1716C22.7337 31.6095 25.2663 31.6095 26.8284 33.1716L28 34.3431L38.8284 23.5147C40.3905 21.9526 42.8284 21.9526 44.3905 23.5147L42.8284 25.1716Z" fill="white"/>
<defs>
<linearGradient id="paint0_linear_1_2" x1="5" y1="5" x2="59" y2="59" gradientUnits="userSpaceOnUse">
<stop stop-color="#22c55e"/>
<stop offset="1" stop-color="#15803d"/>
</linearGradient>
</defs>
</svg>